<svg width="300" height="300" viewBox="0 0 300 300" fill="none" xmlns="http://www.w3.org/2000/svg">
<rect width="300" height="300" rx="150" fill="#2DAD67"/>
<g clip-path="url(#clip0)">
<path d="M209.612 119.423L207.122 111.875C206.793 110.88 206.05 110.075 205.083 109.669L201.536 108.179L188.516 91.981C188.287 91.7023 188.027 91.458 187.73 91.2561L154.486 68.6275C153.053 67.6532 151.13 67.8282 149.896 69.0496C148.664 70.271 148.47 72.1932 149.431 73.6375L165.805 98.1777C164.392 100.315 161.955 103.913 159.242 107.56C153.279 115.562 150.255 118.04 149.076 118.791C145.789 115.823 143.022 110.722 141.031 103.944C139.313 98.0897 138.806 93.0746 138.804 93.0267C138.801 93.0212 138.801 93.0189 138.801 93.0189C138.795 92.9737 138.79 92.9339 138.782 92.8941C138.774 92.8146 138.761 92.7375 138.747 92.663C138.745 92.6525 138.745 92.642 138.742 92.6311L137.221 85.3802C136.809 83.4206 134.887 82.1652 132.927 82.5765C130.968 82.988 129.715 84.9102 130.124 86.8697L130.713 89.6789C125.18 89.7611 115.513 90.4248 105.41 93.55C91.644 97.8086 81.4806 105.182 75.2044 115.465C62.2903 136.625 66.7534 168.78 88.4688 211.032C89.069 212.195 90.2476 212.949 91.5566 212.997C92.8657 213.05 94.0977 212.391 94.7824 211.276L112.228 182.889L119.859 190.238C120.703 191.051 121.89 191.407 123.042 191.189C124.197 190.971 125.172 190.212 125.665 189.144L144.418 148.496L149.579 150.033C159.772 161.744 151.263 183.754 142.206 200.316C131.73 219.48 118.075 235.856 117.916 236.048C116.774 237.407 116.787 239.398 117.948 240.741C118.659 241.565 119.671 242 120.696 242C121.346 242 121.999 241.825 122.586 241.469C123.183 241.103 137.332 232.384 152.388 218.62C161.28 210.49 168.619 202.291 174.205 194.247C181.315 183.999 185.611 173.947 186.959 164.357C188.94 150.336 184.719 137.307 174.412 125.62L174.077 121.606L179.233 115.337L181.177 119.227C181.554 119.981 182.181 120.579 182.956 120.921L197.845 127.505C198.859 127.957 200.022 127.914 201.004 127.394L207.865 123.762C209.432 122.936 210.17 121.102 209.612 119.423ZM199.168 120.164L187.082 114.817L183.222 107.104C182.675 106.008 181.608 105.262 180.386 105.124C179.17 104.986 177.965 105.474 177.184 106.422L167.541 118.136C166.941 118.866 166.649 119.8 166.729 120.743L167.291 127.442C167.355 128.238 167.69 128.992 168.226 129.584C173.154 134.972 176.6 140.687 178.464 146.577C180.152 151.911 180.598 157.548 179.786 163.338C177.062 182.666 160.776 201.113 147.594 213.183C144.15 216.332 140.733 219.226 137.518 221.807C141.115 216.491 144.968 210.369 148.52 203.88C154.975 192.092 159.063 181.535 160.675 172.503C162.82 160.487 160.633 151.006 154.178 144.325C153.746 143.877 153.204 143.547 152.607 143.37L143.479 140.651C143.136 140.55 142.786 140.5 142.443 140.5C141.06 140.5 139.756 141.296 139.151 142.608L121.217 181.482L114.014 174.542C113.222 173.777 112.131 173.417 111.043 173.555C109.954 173.692 108.985 174.319 108.412 175.254L92.0195 201.926C82.6707 182.698 77.1775 165.754 75.6774 151.491C74.3126 138.542 76.2375 127.691 81.3936 119.243C86.722 110.513 95.526 104.197 107.556 100.475C117.552 97.3814 127.14 96.9196 131.967 96.9196C131.985 96.9196 132.004 96.9196 132.022 96.9196C132.205 98.0346 132.452 99.3889 132.781 100.902C124.453 101.752 106.707 105.185 95.5396 119.081C86.2286 130.665 83.7433 146.672 88.1534 166.657C88.528 168.35 90.028 169.503 91.6899 169.503C91.9502 169.503 92.2129 169.476 92.4756 169.418C94.4297 168.983 95.6643 167.05 95.2341 165.095C91.3259 147.383 93.3198 133.445 101.16 123.658C111.141 111.206 128.194 108.578 134.709 108.023C135.373 110.043 136.103 111.928 136.899 113.67C133.692 114.464 129.402 115.906 125.098 118.505C117.239 123.25 107.872 132.805 107.875 151.374C107.875 153.376 109.497 155.001 111.499 155.001C113.501 155.001 115.123 153.376 115.123 151.374C115.123 139.281 119.666 130.357 128.626 124.845C133.318 121.959 138.099 120.746 140.712 120.263C142.169 122.246 143.768 123.911 145.504 125.246C146.423 125.955 147.538 126.33 148.727 126.33C151.157 126.33 153.743 124.816 157.107 121.421C159.238 119.27 161.731 116.304 164.514 112.611C169.176 106.43 173.042 100.353 173.201 100.098C173.971 98.8876 173.955 97.3369 173.159 96.142L165.788 85.0917L183.2 96.9464L196.459 113.437C196.836 113.907 197.33 114.276 197.882 114.509L200.755 115.715L201.769 118.789L199.168 120.164Z" fill="white"/>
<path d="M237.251 138.487C235.626 137.321 233.358 137.693 232.195 139.32C231.027 140.945 231.399 143.21 233.024 144.378C234.383 145.352 234.776 146.247 234.702 146.717C234.649 147.046 234.373 147.328 233.975 147.452C233.162 147.71 232.063 147.227 231.038 146.165C223.185 138.022 211.975 127.423 211.858 127.317C210.403 125.942 208.109 126.008 206.734 127.463C205.364 128.918 205.428 131.212 206.883 132.587C206.994 132.693 218.082 143.175 225.819 151.199C228.064 153.525 230.81 154.77 233.529 154.77C234.41 154.77 235.292 154.637 236.146 154.369C239.179 153.418 241.372 150.925 241.86 147.867C242.417 144.407 240.739 140.988 237.251 138.487Z" fill="white"/>
</g>
<defs>
<clipPath id="clip0">
<rect width="174" height="174" fill="white" transform="translate(63 63)"/>
</clipPath>
</defs>
</svg>
