<svg width="790" height="197" viewBox="0 0 790 197" fill="none" xmlns="http://www.w3.org/2000/svg">
<rect width="197" height="197" rx="98.5" fill="#2DAD67"/>
<g clip-path="url(#clip0)">
<path d="M137.646 78.4214L136.01 73.4647C135.794 72.811 135.306 72.2828 134.671 72.0159L132.342 71.0377L123.792 60.4008C123.642 60.2178 123.471 60.0574 123.276 59.9248L101.446 45.0654C100.504 44.4256 99.2423 44.5405 98.4315 45.3426C97.6225 46.1446 97.4953 47.4069 98.1264 48.3553L108.878 64.47C107.951 65.8735 106.35 68.2359 104.569 70.6314C100.653 75.886 98.6672 77.5126 97.893 78.0061C95.7346 76.0569 93.918 72.7077 92.6103 68.2567C91.4824 64.4122 91.1494 61.119 91.1476 61.0875C91.1458 61.0839 91.1458 61.0824 91.1458 61.0824C91.1423 61.0527 91.1389 61.0266 91.1336 61.0005C91.1284 60.9483 91.1197 60.8976 91.1108 60.8487C91.109 60.8418 91.109 60.8349 91.1072 60.8277L90.1081 56.0663C89.8379 54.7795 88.5757 53.9552 87.2889 54.2252C86.0021 54.4954 85.1793 55.7577 85.4478 57.0444L85.8348 58.8891C82.2014 58.9431 75.8533 59.379 69.2195 61.4312C60.1795 64.2277 53.5056 69.0694 49.3842 75.8217C40.9039 89.7173 43.8347 110.832 58.0945 138.578C58.4886 139.341 59.2626 139.836 60.1222 139.868C60.9818 139.903 61.7908 139.47 62.2405 138.738L73.6966 120.097L78.7073 124.923C79.2617 125.457 80.0412 125.69 80.7977 125.547C81.556 125.404 82.1961 124.906 82.5203 124.205L94.8343 97.5122L98.2237 98.5216C104.917 106.212 99.3291 120.665 93.3822 131.541C86.5025 144.125 77.5359 154.879 77.4313 155.005C76.6817 155.897 76.6904 157.205 77.4522 158.087C77.9196 158.627 78.5837 158.913 79.2568 158.913C79.6839 158.913 80.1128 158.798 80.498 158.565C80.8903 158.324 90.1813 152.599 100.068 143.56C105.907 138.222 110.726 132.838 114.394 127.555C119.064 120.826 121.884 114.225 122.77 107.928C124.071 98.7204 121.299 90.1652 114.53 82.4905L114.311 79.8545L117.697 75.7383L118.973 78.2924C119.22 78.7876 119.632 79.1799 120.141 79.4046L129.918 83.7284C130.584 84.0248 131.348 83.9969 131.993 83.6552L136.498 81.2701C137.527 80.728 138.012 79.5234 137.646 78.4214ZM130.787 78.9079L122.851 75.3966L120.316 70.3319C119.957 69.6117 119.256 69.1219 118.454 69.0313C117.655 68.9407 116.864 69.2614 116.351 69.8838L110.019 77.5758C109.625 78.0552 109.433 78.6689 109.485 79.2879L109.855 83.6867C109.897 84.2098 110.116 84.7048 110.468 85.0938C113.704 88.6314 115.967 92.3848 117.191 96.252C118.3 99.7546 118.593 103.456 118.059 107.259C116.271 119.951 105.576 132.064 96.9198 139.99C94.6585 142.058 92.4145 143.958 90.3034 145.653C92.6656 142.163 95.1954 138.142 97.5284 133.881C101.767 126.14 104.452 119.208 105.51 113.277C106.919 105.386 105.482 99.1603 101.244 94.7735C100.96 94.4789 100.604 94.2627 100.212 94.146L94.2177 92.3607C93.9928 92.2944 93.7627 92.2614 93.5377 92.2614C92.6294 92.2614 91.7734 92.7842 91.3759 93.6456L79.5989 119.173L74.8689 114.616C74.3494 114.114 73.6328 113.877 72.918 113.967C72.2032 114.058 71.5667 114.47 71.1903 115.083L60.4261 132.598C54.2871 119.972 50.6799 108.845 49.6948 99.4789C48.7986 90.9762 50.0626 83.8505 53.4485 78.3029C56.9474 72.5704 62.7287 68.4227 70.6285 65.9784C77.1927 63.9471 83.4884 63.6439 86.658 63.6439C86.6703 63.6439 86.6823 63.6439 86.6946 63.6439C86.8149 64.3761 86.9771 65.2654 87.1932 66.2591C81.7238 66.817 70.0706 69.0714 62.7377 78.1966C56.6234 85.8034 54.9914 96.3147 57.8874 109.438C58.1333 110.55 59.1184 111.307 60.2097 111.307C60.3806 111.307 60.5531 111.289 60.7256 111.251C62.0088 110.965 62.8196 109.696 62.5371 108.413C59.9707 96.7818 61.28 87.6287 66.4286 81.2022C72.9823 73.0255 84.1804 71.2993 88.4589 70.9351C88.8948 72.2618 89.3744 73.4997 89.8972 74.6434C87.791 75.1647 84.9738 76.1114 82.1474 77.8184C76.9867 80.934 70.8359 87.2087 70.8377 99.4024C70.8377 100.717 71.9028 101.784 73.2175 101.784C74.5321 101.784 75.5973 100.717 75.5973 99.4024C75.5973 91.4611 78.5803 85.6012 84.4645 81.9817C87.5453 80.0866 90.6852 79.2899 92.4007 78.9726C93.3579 80.275 94.4074 81.368 95.5478 82.2451C96.151 82.7106 96.8832 82.9565 97.6643 82.9565C99.2594 82.9565 100.958 81.9628 103.167 79.7329C104.567 78.3207 106.204 76.3732 108.031 73.948C111.093 69.8893 113.631 65.8985 113.735 65.7311C114.241 64.9362 114.231 63.9179 113.708 63.1333L108.868 55.8768L120.301 63.6615L129.008 74.4901C129.256 74.7987 129.58 75.0411 129.943 75.1944L131.829 75.986L132.495 78.0049L130.787 78.9079Z" fill="white"/>
<path d="M155.795 90.9396C154.728 90.1741 153.239 90.4182 152.475 91.487C151.708 92.5539 151.952 94.0411 153.019 94.8081C153.912 95.4479 154.17 96.0355 154.121 96.3442C154.086 96.5604 153.905 96.7452 153.643 96.8271C153.11 96.9962 152.388 96.6789 151.715 95.9815C146.558 90.6345 139.197 83.6744 139.12 83.6048C138.165 82.7017 136.658 82.7452 135.755 83.7008C134.856 84.6561 134.897 86.1625 135.853 87.0656C135.926 87.1353 143.207 94.0186 148.288 99.2873C149.762 100.815 151.565 101.632 153.35 101.632C153.929 101.632 154.508 101.545 155.07 101.369C157.061 100.745 158.501 99.1076 158.821 97.0991C159.187 94.8275 158.086 92.5818 155.795 90.9396Z" fill="white"/>
</g>
<path d="M253.589 127H222.869C221.855 127 221.109 126.787 220.629 126.36C220.202 125.88 219.989 125.133 219.989 124.12V72.28C219.989 71.2667 220.202 70.5467 220.629 70.12C221.109 69.64 221.855 69.4 222.869 69.4H248.389C253.615 69.4 257.482 70.4133 259.989 72.44C262.495 74.4133 263.749 77.48 263.749 81.64V85.48C263.749 87.72 263.349 89.56 262.549 91C261.802 92.3867 260.629 93.4267 259.029 94.12C262.442 94.44 264.975 95.6133 266.629 97.64C268.282 99.6667 269.109 102.627 269.109 106.52V113.88C269.109 118.36 267.829 121.667 265.269 123.8C262.762 125.933 258.869 127 253.589 127ZM237.989 83V91.64H244.789C245.802 91.64 246.549 91.3733 247.029 90.84C247.562 90.3067 247.829 89.5067 247.829 88.44V86.2C247.829 85.1333 247.562 84.3333 247.029 83.8C246.549 83.2667 245.802 83 244.789 83H237.989ZM237.989 103.96V113.4H248.389C249.402 113.4 250.149 113.133 250.629 112.6C251.162 112.067 251.429 111.267 251.429 110.2V107.08C251.429 106.013 251.162 105.24 250.629 104.76C250.149 104.227 249.402 103.96 248.389 103.96H237.989ZM298.838 86.2L295.078 98.36H307.638L303.878 86.2C303.664 85.72 303.424 85.3733 303.158 85.16C302.944 84.9467 302.678 84.84 302.358 84.84H300.358C300.038 84.84 299.744 84.9467 299.478 85.16C299.264 85.3733 299.051 85.72 298.838 86.2ZM294.278 124.12C294.278 125.133 294.038 125.88 293.557 126.36C293.131 126.787 292.411 127 291.398 127H279.638C278.624 127 277.878 126.787 277.398 126.36C276.971 125.88 276.758 125.133 276.758 124.12V103C276.758 101.4 276.998 99.56 277.478 97.48C278.011 95.4 278.811 92.9733 279.878 90.2L286.838 72.04C287.158 71.1333 287.638 70.4667 288.278 70.04C288.971 69.6133 289.851 69.4 290.918 69.4H312.438C313.451 69.4 314.278 69.6133 314.918 70.04C315.611 70.4667 316.118 71.1333 316.438 72.04L323.398 90.2C324.464 92.9733 325.238 95.4 325.718 97.48C326.251 99.56 326.518 101.4 326.518 103V124.12C326.518 125.133 326.278 125.88 325.798 126.36C325.371 126.787 324.651 127 323.638 127H311.558C310.491 127 309.691 126.787 309.158 126.36C308.678 125.88 308.438 125.133 308.438 124.12V112.92H294.278V124.12ZM351.275 127H339.275C338.262 127 337.515 126.787 337.035 126.36C336.608 125.88 336.395 125.133 336.395 124.12V72.28C336.395 71.2667 336.608 70.5467 337.035 70.12C337.515 69.64 338.262 69.4 339.275 69.4H347.595C348.608 69.4 349.462 69.56 350.155 69.88C350.902 70.2 351.622 70.76 352.315 71.56L367.835 89.32V72.28C367.835 71.2667 368.048 70.5467 368.475 70.12C368.955 69.64 369.702 69.4 370.715 69.4H382.715C383.728 69.4 384.448 69.64 384.875 70.12C385.355 70.5467 385.595 71.2667 385.595 72.28V124.12C385.595 125.133 385.355 125.88 384.875 126.36C384.448 126.787 383.728 127 382.715 127H370.715C369.702 127 368.955 126.787 368.475 126.36C368.048 125.88 367.835 125.133 367.835 124.12V114.28L354.155 97.72V124.12C354.155 125.133 353.915 125.88 353.435 126.36C353.008 126.787 352.288 127 351.275 127ZM423.829 127H410.869C409.856 127 409.109 126.787 408.629 126.36C408.203 125.88 407.989 125.133 407.989 124.12V84.84H396.229C395.216 84.84 394.469 84.6267 393.989 84.2C393.563 83.72 393.349 82.9733 393.349 81.96V72.28C393.349 71.2667 393.563 70.5467 393.989 70.12C394.469 69.64 395.216 69.4 396.229 69.4H438.469C439.483 69.4 440.203 69.64 440.629 70.12C441.109 70.5467 441.349 71.2667 441.349 72.28V81.96C441.349 82.9733 441.109 83.72 440.629 84.2C440.203 84.6267 439.483 84.84 438.469 84.84H426.709V124.12C426.709 125.133 426.469 125.88 425.989 126.36C425.563 126.787 424.843 127 423.829 127ZM497.539 111.88C497.539 114.333 497.165 116.573 496.419 118.6C495.725 120.573 494.445 122.28 492.579 123.72C490.765 125.107 488.232 126.2 484.979 127C481.779 127.8 477.699 128.2 472.739 128.2C467.779 128.2 463.672 127.8 460.419 127C457.165 126.2 454.605 125.107 452.739 123.72C450.925 122.28 449.645 120.573 448.899 118.6C448.205 116.573 447.859 114.333 447.859 111.88V84.6C447.859 82.1467 448.205 79.9333 448.899 77.96C449.645 75.9333 450.925 74.2 452.739 72.76C454.605 71.32 457.165 70.2 460.419 69.4C463.672 68.6 467.779 68.2 472.739 68.2C477.699 68.2 481.779 68.6 484.979 69.4C488.232 70.2 490.765 71.32 492.579 72.76C494.445 74.2 495.725 75.9333 496.419 77.96C497.165 79.9333 497.539 82.1467 497.539 84.6V111.88ZM466.019 109C466.019 110.067 466.419 110.973 467.219 111.72C468.019 112.413 469.859 112.76 472.739 112.76C475.619 112.76 477.459 112.413 478.259 111.72C479.059 110.973 479.459 110.067 479.459 109V87.48C479.459 86.4667 479.059 85.6133 478.259 84.92C477.459 84.1733 475.619 83.8 472.739 83.8C469.859 83.8 468.019 84.1733 467.219 84.92C466.419 85.6133 466.019 86.4667 466.019 87.48V109ZM551.323 127H510.603C509.59 127 508.843 126.787 508.363 126.36C507.936 125.88 507.723 125.133 507.723 124.12V72.28C507.723 71.2667 507.936 70.5467 508.363 70.12C508.843 69.64 509.59 69.4 510.603 69.4H523.003C524.016 69.4 524.736 69.64 525.163 70.12C525.643 70.5467 525.883 71.2667 525.883 72.28V111.88H536.843V98.92C536.843 97.9067 537.056 97.1867 537.483 96.76C537.963 96.28 538.71 96.04 539.723 96.04H551.323C552.336 96.04 553.056 96.28 553.483 96.76C553.963 97.1867 554.203 97.9067 554.203 98.92V124.12C554.203 125.133 553.963 125.88 553.483 126.36C553.056 126.787 552.336 127 551.323 127ZM603.348 127H566.228C565.215 127 564.468 126.787 563.988 126.36C563.561 125.88 563.348 125.133 563.348 124.12V72.28C563.348 71.2667 563.561 70.5467 563.988 70.12C564.468 69.64 565.215 69.4 566.228 69.4H603.348C604.361 69.4 605.081 69.64 605.508 70.12C605.988 70.5467 606.228 71.2667 606.228 72.28V81.64C606.228 82.6533 605.988 83.4 605.508 83.88C605.081 84.3067 604.361 84.52 603.348 84.52H581.268V90.68H596.868C597.881 90.68 598.601 90.92 599.028 91.4C599.508 91.8267 599.748 92.5467 599.748 93.56V102.12C599.748 103.133 599.508 103.88 599.028 104.36C598.601 104.787 597.881 105 596.868 105H581.268V111.88H603.348C604.361 111.88 605.081 112.12 605.508 112.6C605.988 113.027 606.228 113.747 606.228 114.76V124.12C606.228 125.133 605.988 125.88 605.508 126.36C605.081 126.787 604.361 127 603.348 127ZM630.492 127H618.572C617.559 127 616.812 126.787 616.332 126.36C615.905 125.88 615.692 125.133 615.692 124.12V72.28C615.692 71.2667 615.905 70.5467 616.332 70.12C616.812 69.64 617.559 69.4 618.572 69.4H631.452C632.305 69.4 632.999 69.5867 633.532 69.96C634.119 70.3333 634.652 70.9467 635.132 71.8L642.332 84.84C642.599 85.32 642.812 85.6667 642.972 85.88C643.185 86.0933 643.452 86.2 643.772 86.2H644.492C644.812 86.2 645.052 86.0933 645.212 85.88C645.425 85.6667 645.665 85.32 645.932 84.84L653.052 71.8C653.532 70.9467 654.039 70.3333 654.572 69.96C655.159 69.5867 655.879 69.4 656.732 69.4H669.692C670.705 69.4 671.425 69.64 671.852 70.12C672.332 70.5467 672.572 71.2667 672.572 72.28V124.12C672.572 125.133 672.332 125.88 671.852 126.36C671.425 126.787 670.705 127 669.692 127H657.372C656.359 127 655.612 126.787 655.132 126.36C654.705 125.88 654.492 125.133 654.492 124.12V95.96L649.772 104.68C649.292 105.587 648.705 106.253 648.012 106.68C647.372 107.053 646.545 107.24 645.532 107.24H642.332C641.319 107.24 640.465 107.053 639.772 106.68C639.132 106.253 638.572 105.587 638.092 104.68L633.372 95.96V124.12C633.372 125.133 633.132 125.88 632.652 126.36C632.225 126.787 631.505 127 630.492 127ZM704.463 86.2L700.703 98.36H713.263L709.503 86.2C709.289 85.72 709.049 85.3733 708.783 85.16C708.569 84.9467 708.303 84.84 707.983 84.84H705.983C705.663 84.84 705.369 84.9467 705.103 85.16C704.889 85.3733 704.676 85.72 704.463 86.2ZM699.903 124.12C699.903 125.133 699.663 125.88 699.182 126.36C698.756 126.787 698.036 127 697.023 127H685.263C684.249 127 683.503 126.787 683.023 126.36C682.596 125.88 682.383 125.133 682.383 124.12V103C682.383 101.4 682.623 99.56 683.103 97.48C683.636 95.4 684.436 92.9733 685.503 90.2L692.463 72.04C692.783 71.1333 693.263 70.4667 693.903 70.04C694.596 69.6133 695.476 69.4 696.543 69.4H718.062C719.076 69.4 719.903 69.6133 720.543 70.04C721.236 70.4667 721.743 71.1333 722.063 72.04L729.023 90.2C730.089 92.9733 730.863 95.4 731.343 97.48C731.876 99.56 732.143 101.4 732.143 103V124.12C732.143 125.133 731.903 125.88 731.423 126.36C730.996 126.787 730.276 127 729.263 127H717.183C716.116 127 715.316 126.787 714.783 126.36C714.303 125.88 714.063 125.133 714.063 124.12V112.92H699.903V124.12ZM768.74 127H743.46C742.447 127 741.7 126.787 741.22 126.36C740.793 125.88 740.58 125.133 740.58 124.12V114.76C740.58 113.747 740.793 113.027 741.22 112.6C741.7 112.12 742.447 111.88 743.46 111.88H764.98C765.673 111.88 766.18 111.667 766.5 111.24C766.873 110.76 767.06 110.2 767.06 109.56C767.06 108.653 766.873 107.987 766.5 107.56C766.18 107.133 765.673 106.893 764.98 106.84L752.98 105.16C749.247 104.627 746.233 103.4 743.94 101.48C741.7 99.56 740.58 96.36 740.58 91.88V83.48C740.58 78.9467 742.047 75.48 744.98 73.08C747.913 70.6267 751.967 69.4 757.14 69.4H779.54C780.553 69.4 781.273 69.64 781.7 70.12C782.18 70.5467 782.42 71.2667 782.42 72.28V81.8C782.42 82.8133 782.18 83.56 781.7 84.04C781.273 84.4667 780.553 84.68 779.54 84.68H760.9C760.207 84.68 759.673 84.92 759.3 85.4C758.927 85.8267 758.74 86.3867 758.74 87.08C758.74 87.7733 758.927 88.36 759.3 88.84C759.673 89.32 760.207 89.5867 760.9 89.64L772.82 91.24C776.553 91.7733 779.567 93 781.86 94.92C784.153 96.84 785.3 100.04 785.3 104.52V112.92C785.3 117.453 783.807 120.947 780.82 123.4C777.887 125.8 773.86 127 768.74 127Z" fill="white"/>
<defs>
<clipPath id="clip0">
<rect width="114.26" height="114.26" fill="white" transform="translate(41.37 41.37)"/>
</clipPath>
</defs>
</svg>
